<?xml version="1.0" encoding="iso-8859-1"?>
<!-- Generator: Adobe Illustrator 19.0.0, SVG Export Plug-In . SVG Version: 6.00 Build 0)  -->
<svg version="1.1" id="Capa_1" xmlns="http://www.w3.org/2000/svg" xmlns:xlink="http://www.w3.org/1999/xlink" x="0px" y="0px"
	 viewBox="0 0 512 512" style="enable-background:new 0 0 512 512;" xml:space="preserve">
<path style="fill:#E5E5E5;" d="M356.424,0H155.576C143.768,53.696,95.944,93.936,38.712,93.936v76.384
	c0,152.528,83.328,268.656,217.168,341.68c134.08-73.024,217.408-189.152,217.408-341.68V93.936
	C415.864,93.936,368.2,53.696,356.424,0z"/>
<path style="fill:#FDBC4B;" d="M255.912,470.624l-6.304-3.904c-79.776-49.312-174.88-140.784-174.88-296.384v-44.432l8.512-2.576
	c41.392-12.56,76.096-41.952,95.216-80.64L181.768,36h148.48l3.296,6.688c19.12,38.704,53.824,68.096,95.248,80.64l8.528,2.576
	v44.416c0,155.664-95.216,247.104-175.072,296.4L255.912,470.624z M98.712,143.488v26.848c0,140.496,84,225.024,157.2,272.016
	c73.28-46.96,157.376-131.472,157.376-272.016v-26.848C371.688,128.576,336.68,98.704,315.48,60H196.488
	C175.304,98.688,140.312,128.56,98.712,143.488z"/>
<path style="fill:#FCD167;" d="M98.712,143.488v26.848c0,140.496,84,225.024,157.2,272.016
	c73.28-46.96,157.376-131.472,157.376-272.016v-26.848C371.688,128.576,336.68,98.704,315.48,60H196.488
	C175.304,98.688,140.312,128.56,98.712,143.488z"/>
<path style="fill:#FFDB70;" d="M98.712,143.488v26.848c0,109.44,50.992,184.784,108.112,235.024h54.928
	c10.736,0,20.336-8.048,20.976-18.8c0.512-11.504-8.56-20.976-19.952-20.976l-64.16-0.016c-11.344,0-20.48-9.488-19.872-20.976
	c0.56-10.752,10.224-18.832,20.992-18.832h37.28c10.72-0.304,19.376-9.088,19.376-19.888c0-10.992-8.944-19.952-19.952-19.952
	h-56.512c-9.2,0-16.752-7.536-16.624-16.752v-1.408c-0.64-9.072,6.656-16.752,15.728-16.752h124.816
	c10.864,0,20.464-8.048,21.088-18.8c0.512-11.504-8.56-20.976-19.952-20.976H186.648c-9.2,0-16.752-7.536-16.752-16.752l0.128-1.152
	v-0.256c-0.128-9.712,7.792-17.648,17.52-17.648h82.016c10.864,0,20.464-8.048,21.104-18.928
	c0.512-11.376-8.56-20.976-19.952-20.976h-86.88c-9.584,0-16.752-8.048-16.624-17.648c0-0.128,0-0.128,0-0.256s0-0.128,0-0.256
	c-0.128-9.584,7.024-17.648,16.624-17.648h90.912c10.736,0,20.336-8.048,20.976-18.8c0.512-11.504-8.56-20.976-19.952-20.976h-79.28
	C175.304,98.688,140.312,128.56,98.712,143.488z"/>
<g>
	<path style="fill:#ED6362;" d="M185.352,285.84c-2.304,2.096-3.664,4.592-4.736,7.232c-1.008,2.656-1.76,5.456-1.568,8.592
		c0.208,3.152,1.488,6.624,1.68,9.744c0.032,0.416-0.064,0.784-0.064,1.184c-5.92-7.808-10.96-16.096-15.136-24.72
		c0.112-1.744,0.384-3.392,1.008-4.848c1.008-2.544,3.184-4.448,4.56-6.736c1.344-2.304,2.016-4.944,2.608-7.632
		c0.528-2.72,0.944-5.488,0.672-8.736c-0.256-0.16-0.496-0.32-0.752-0.48c-2.624,1.392-4.432,3.344-6.016,5.488
		c-1.52,2.176-2.816,4.544-3.312,7.424c-0.464,2.896,0,6.336-0.512,9.168c-0.096,0.56-0.336,1.024-0.48,1.552
		c-3.808-8.624-6.752-17.536-8.864-26.64c0.48-1.968,1.12-3.808,2.208-5.248c1.488-2.064,3.936-3.28,5.696-5.04
		c1.744-1.792,2.896-4.048,3.952-6.416c1.008-2.4,1.936-4.864,2.256-7.984c-0.208-0.208-0.416-0.432-0.64-0.64
		c-2.752,0.656-4.832,2.032-6.752,3.648c-1.856,1.648-3.552,3.536-4.56,6.064c-1.008,2.56-1.232,5.824-2.288,8.288
		c-0.272,0.656-0.688,1.184-1.04,1.776c-1.728-9.008-2.624-18.16-2.672-27.328c0.928-2.16,2.032-4.144,3.616-5.424
		c1.792-1.552,4.32-2.048,6.304-3.264c1.968-1.232,3.456-3.088,4.896-5.056c1.392-2.016,2.688-4.144,3.552-7.04
		c-0.16-0.256-0.32-0.512-0.48-0.768c-2.704-0.064-4.912,0.752-6.992,1.792c-2.048,1.104-3.968,2.448-5.408,4.592
		c-1.424,2.176-2.24,5.184-3.696,7.216c-0.496,0.72-1.104,1.248-1.712,1.808c0.304-8.96,1.424-17.904,3.328-26.736
		c0.096-0.144,0.176-0.272,0.272-0.416c1.424-2.176,3.008-4.08,4.992-5.04c1.952-1.024,4.384-0.832,6.448-1.504
		c2.048-0.688,3.776-2.096,5.472-3.648c1.664-1.616,3.264-3.36,4.624-5.984c-0.096-0.288-0.192-0.576-0.288-0.88
		c-2.48-0.72-4.656-0.464-6.768,0.032c-2.096,0.56-4.128,1.392-5.856,3.088c-1.728,1.744-3.056,4.432-4.8,6
		c-0.752,0.72-1.6,1.2-2.448,1.648c2.32-8.768,5.472-17.392,9.424-25.744c0.08,0.096,0.16,0.192,0.224,0.304
		c0.336-0.352,0.672-0.688,1.024-1.024c1.744-1.744,3.584-3.2,5.584-3.648c1.984-0.512,4.16,0.272,6.16,0.128
		c2.016-0.176,3.872-1.136,5.728-2.272c1.856-1.2,3.68-2.56,5.472-4.864c-0.032-0.32-0.048-0.624-0.08-0.944
		c-2.096-1.296-4.112-1.536-6.16-1.552c-2.016,0.064-4.048,0.384-5.984,1.648c-1.936,1.296-3.728,3.6-5.632,4.704
		c-0.944,0.576-1.92,0.928-2.912,1.12c0.032-0.192,0.032-0.384,0.08-0.576c6.416-11.888,14.56-23.136,24.448-33.376
		c-9.376,9.056-17.36,19.056-23.936,29.712c0.016-0.32,0.16-0.688,0.16-0.992c0.16-2.288,0.256-4.56,0.048-6.72
		c-0.688-4.208-1.824-8.272-4.944-11.696c-0.336,0.128-0.672,0.24-1.008,0.368c-3.312,5.824-4.176,10.912-4.192,15.568
		c0.128,2.272,0.656,4.352,1.344,6.336c0.56,2.048,1.584,3.872,2.848,5.552c0.176,0.24,0.368,0.48,0.544,0.72
		c-3.76,7.168-6.928,14.592-9.488,22.176c-0.016-0.08,0-0.16-0.032-0.24c-0.448-2.4-0.944-4.784-1.696-6.976
		c-1.76-4.24-3.904-8.272-7.808-11.28c-0.304,0.192-0.592,0.384-0.896,0.576c-1.792,6.688-1.36,12.16-0.16,16.992
		c0.704,2.336,1.776,4.384,2.976,6.32c1.088,2.032,2.592,3.712,4.288,5.2c0.048,0.048,0.096,0.08,0.144,0.128
		c-1.936,7.52-3.312,15.184-4.096,22.912c-1.04-2.272-2.08-4.528-3.344-6.544c-2.848-4.048-6-7.84-10.64-10.256
		c-0.256,0.24-0.496,0.496-0.736,0.752c-0.112,7.248,1.712,12.8,4.144,17.552c1.312,2.272,2.912,4.192,4.624,5.952
		c1.488,1.712,3.312,3.04,5.216,4.192c-0.192,7.616,0.16,15.264,1.088,22.864c-1.536-1.968-3.088-3.952-4.768-5.68
		c-3.936-3.6-8.08-6.912-13.36-8.592c-0.192,0.304-0.384,0.592-0.56,0.896c1.696,7.44,4.96,12.8,8.656,17.2
		c1.92,2.08,4.048,3.728,6.256,5.2c1.76,1.312,3.728,2.16,5.728,2.928c1.504,7.424,3.552,14.768,6.16,21.968
		c-1.984-1.6-3.952-3.232-6.016-4.56c-4.96-2.912-10.048-5.504-15.888-6.288c-0.128,0.336-0.24,0.672-0.352,1.008
		c3.6,7.264,8.32,12.112,13.264,15.84c2.512,1.728,5.136,2.992,7.808,4.048c1.936,0.88,3.952,1.264,5.968,1.632
		c3.184,6.928,6.896,13.68,11.168,20.208c-2.352-1.12-4.704-2.32-7.056-3.216c-5.92-1.952-11.856-3.616-18.112-3.344
		c-0.032,0.368-0.08,0.72-0.112,1.088c5.584,6.688,11.744,10.64,17.888,13.44c3.088,1.248,6.16,2,9.232,2.512
		c2.016,0.432,3.984,0.368,5.968,0.384c3.312,4.208,6.88,8.304,10.688,12.24c2.016-2.016,4.016-4.016,6.032-6.032
		c-4.384-4.224-8.448-8.672-12.208-13.296c-0.208-1.504-0.256-2.976-0.048-4.368c0.368-2.928,2.048-5.472,2.848-8.224
		c0.768-2.752,0.832-5.68,0.8-8.64c-0.096-2.976-0.272-5.952-1.232-9.248C185.928,286.048,185.64,285.952,185.352,285.84z"/>
	<path style="fill:#ED6362;" d="M326.664,285.84c2.304,2.096,3.664,4.592,4.736,7.232c1.008,2.656,1.76,5.456,1.568,8.592
		c-0.208,3.152-1.488,6.624-1.68,9.744c-0.032,0.416,0.064,0.784,0.064,1.184c5.92-7.808,10.96-16.096,15.136-24.72
		c-0.112-1.744-0.384-3.392-1.008-4.848c-1.008-2.544-3.184-4.448-4.56-6.736c-1.344-2.304-2.016-4.944-2.608-7.632
		c-0.528-2.72-0.944-5.488-0.672-8.736c0.256-0.16,0.496-0.32,0.752-0.48c2.624,1.392,4.432,3.344,6.016,5.488
		c1.52,2.176,2.816,4.544,3.312,7.424c0.464,2.896,0,6.336,0.512,9.168c0.096,0.56,0.336,1.024,0.48,1.552
		c3.808-8.624,6.752-17.536,8.864-26.64c-0.48-1.968-1.12-3.808-2.208-5.248c-1.488-2.064-3.936-3.28-5.696-5.04
		c-1.744-1.792-2.896-4.048-3.952-6.416c-1.008-2.4-1.936-4.864-2.256-7.984c0.208-0.208,0.416-0.432,0.64-0.64
		c2.752,0.656,4.832,2.032,6.752,3.648c1.856,1.648,3.552,3.536,4.56,6.064c1.008,2.56,1.232,5.824,2.288,8.288
		c0.272,0.656,0.688,1.184,1.04,1.776c1.728-9.008,2.624-18.16,2.672-27.328c-0.928-2.16-2.032-4.144-3.616-5.424
		c-1.792-1.552-4.32-2.048-6.304-3.264c-1.968-1.232-3.456-3.088-4.896-5.056c-1.392-2.016-2.688-4.144-3.552-7.04
		c0.16-0.256,0.32-0.512,0.48-0.768c2.704-0.064,4.912,0.752,6.992,1.792c2.048,1.104,3.968,2.448,5.408,4.592
		c1.424,2.176,2.24,5.184,3.696,7.216c0.496,0.72,1.104,1.248,1.712,1.808c-0.304-8.96-1.424-17.904-3.328-26.736
		c-0.096-0.144-0.176-0.272-0.272-0.416c-1.424-2.176-3.008-4.08-4.992-5.04c-1.952-1.024-4.384-0.832-6.448-1.504
		c-2.048-0.688-3.776-2.096-5.472-3.648c-1.664-1.616-3.264-3.36-4.624-5.984c0.096-0.288,0.192-0.576,0.288-0.88
		c2.48-0.72,4.656-0.464,6.768,0.032c2.096,0.56,4.128,1.392,5.856,3.088c1.728,1.744,3.056,4.432,4.8,6
		c0.752,0.72,1.6,1.2,2.448,1.648c-2.32-8.768-5.472-17.392-9.424-25.744c-0.08,0.096-0.16,0.192-0.224,0.304
		c-0.336-0.352-0.672-0.688-1.024-1.024c-1.744-1.744-3.584-3.2-5.584-3.648c-1.984-0.512-4.16,0.272-6.16,0.128
		c-2.016-0.176-3.872-1.136-5.728-2.272c-1.856-1.2-3.68-2.56-5.472-4.864c0.032-0.32,0.048-0.624,0.08-0.944
		c2.096-1.296,4.112-1.536,6.16-1.552c2.016,0.064,4.048,0.384,5.984,1.648c1.936,1.296,3.728,3.6,5.632,4.704
		c0.944,0.576,1.92,0.928,2.912,1.12c-0.032-0.192-0.032-0.384-0.08-0.576c-6.416-11.888-14.56-23.136-24.448-33.376
		c9.376,9.056,17.36,19.056,23.936,29.712c-0.016-0.32-0.16-0.688-0.16-0.992c-0.16-2.288-0.256-4.56-0.048-6.72
		c0.688-4.208,1.824-8.272,4.944-11.696c0.336,0.128,0.672,0.24,1.008,0.368c3.312,5.824,4.176,10.912,4.192,15.568
		c-0.128,2.272-0.656,4.352-1.344,6.336c-0.56,2.048-1.584,3.872-2.848,5.552c-0.176,0.24-0.368,0.48-0.544,0.72
		c3.76,7.168,6.928,14.592,9.488,22.176c0.016-0.08,0-0.16,0.032-0.24c0.448-2.4,0.944-4.784,1.696-6.976
		c1.76-4.24,3.904-8.272,7.808-11.28c0.304,0.192,0.592,0.384,0.896,0.576c1.792,6.688,1.36,12.16,0.16,16.992
		c-0.704,2.336-1.776,4.384-2.976,6.32c-1.088,2.032-2.592,3.712-4.288,5.2c-0.048,0.048-0.096,0.08-0.144,0.128
		c1.936,7.536,3.312,15.184,4.096,22.912c1.04-2.272,2.08-4.528,3.36-6.544c2.848-4.048,6-7.84,10.64-10.256
		c0.256,0.24,0.496,0.496,0.736,0.752c0.112,7.248-1.712,12.8-4.144,17.552c-1.312,2.272-2.912,4.192-4.624,5.952
		c-1.488,1.712-3.312,3.04-5.216,4.192c0.192,7.616-0.16,15.264-1.088,22.864c1.536-1.968,3.088-3.952,4.768-5.68
		c3.936-3.6,8.08-6.912,13.36-8.592c0.192,0.304,0.384,0.592,0.56,0.896c-1.696,7.44-4.96,12.8-8.656,17.2
		c-1.92,2.08-4.048,3.728-6.256,5.2c-1.76,1.312-3.728,2.16-5.728,2.928c-1.504,7.424-3.552,14.768-6.16,21.968
		c1.984-1.584,3.952-3.216,6.016-4.544c4.96-2.912,10.048-5.504,15.888-6.288c0.128,0.336,0.24,0.672,0.352,1.008
		c-3.6,7.264-8.32,12.112-13.264,15.84c-2.512,1.728-5.136,2.992-7.808,4.048c-1.936,0.88-3.952,1.264-5.968,1.632
		c-3.184,6.928-6.896,13.68-11.168,20.208c2.352-1.12,4.704-2.32,7.056-3.216c5.92-1.952,11.856-3.616,18.112-3.344
		c0.032,0.368,0.08,0.72,0.112,1.088c-5.584,6.688-11.744,10.64-17.888,13.44c-3.088,1.248-6.16,2-9.232,2.512
		c-2.016,0.432-3.984,0.368-5.968,0.384c-3.312,4.208-6.88,8.304-10.688,12.24c-2.016-2.016-4.016-4.016-6.032-6.032
		c4.384-4.224,8.448-8.672,12.208-13.296c0.208-1.504,0.256-2.976,0.048-4.368c-0.368-2.928-2.048-5.472-2.848-8.224
		c-0.768-2.752-0.832-5.68-0.8-8.64c0.096-2.976,0.272-5.952,1.232-9.248C326.088,286.048,326.376,285.952,326.664,285.84z"/>
</g>
<path style="fill:#E95454;" d="M253.096,130.72c-4.224,11.776-12,22.096-23.344,30.928c-5.792,4.512-11.248,7.856-16.576,10.784
	v33.888c12.064-5.552,23.36-12.176,32.928-21.136V324.88h37.072V130.72H253.096z"/>
<g>
</g>
<g>
</g>
<g>
</g>
<g>
</g>
<g>
</g>
<g>
</g>
<g>
</g>
<g>
</g>
<g>
</g>
<g>
</g>
<g>
</g>
<g>
</g>
<g>
</g>
<g>
</g>
<g>
</g>
</svg>
