<?xml version="1.0" encoding="utf-8"?>
<!-- Generator: Adobe Illustrator 16.0.0, SVG Export Plug-In . SVG Version: 6.00 Build 0)  -->
<!DOCTYPE svg PUBLIC "-//W3C//DTD SVG 1.1//EN" "http://www.w3.org/Graphics/SVG/1.1/DTD/svg11.dtd">
<svg version="1.1" id="Layer_2" xmlns="http://www.w3.org/2000/svg" xmlns:xlink="http://www.w3.org/1999/xlink" x="0px" y="0px"
	 width="1280px" height="800px" viewBox="0 0 1280 800" enable-background="new 0 0 1280 800" xml:space="preserve">
<polyline fill="#AEC6CF" points="4.373,158.778 7.103,184.132 6.108,184.239 9.213,213.072 4.242,213.608 4.67,217.584 
	1.687,217.906 -0.508,230.211 -3.988,230.586 -8.095,253.156 -13.564,253.745 -16.356,279.189 -20.83,279.671 -21.909,288.336 
	-21.105,295.793 -32.042,296.971 -27.867,335.747 -33.832,336.39 -12.849,531.263 -24.78,532.548 -8.08,687.65 -15.039,688.4 
	-2.941,800.751 72.125,792.668 147.19,784.585 135.093,672.234 128.133,672.984 111.432,517.881 99.501,519.166 78.518,324.292 
	72.553,324.934 68.377,286.158 57.441,287.336 56.638,279.879 53.739,271.642 49.265,272.124 41.12,247.856 35.652,248.445 
	26.834,227.268 23.354,227.642 18.589,216.085 15.606,216.407 15.178,212.43 10.207,212.965 7.103,184.132 6.108,184.239 
	3.378,158.885 "/>
<polygon fill="#AEC6CF" points="243.653,743.97 328.687,736.726 296.684,361.042 288.997,361.696 287.606,345.362 279.919,346.017 
	278.528,329.683 268.919,330.501 267.446,313.206 207.395,318.322 147.343,323.437 148.815,340.732 139.207,341.55 140.599,357.885 
	132.912,358.539 134.304,374.874 126.617,375.528 158.62,751.212 "/>
<path fill="#AEC6CF" d="M1047.727,269.99l-3.678,39.328c0.996,0.093,1.666,3.671,1.666,3.671l-0.807,8.629
	c0.995,0.093,0.384,4.388,0.384,4.388l4.256,10.441l-1.07,11.45l1.852,1.68l-2.001,21.406l1.617,0.151
	c2.584,3.255-1.041,4.422-1.041,4.422l-0.978,10.455l9.957,0.931l-1.117,11.948l-1.991-0.186l-1.489,15.931l0,0l-0.966,10.33
	l6.12,9.736l-1.257,13.441l1.991,0.187l-0.651,6.97l-1.991-0.187l-1.582,16.927l7.841,0.732l-3.561,7.2l-13.172,140.886
	l28.874,2.699l-11.915,127.444l-59.241-5.539l-59.242-5.538l11.915-127.444l28.874,2.699l13.172-140.885l-2.165-7.735l7.841,0.732
	l1.583-16.926l-1.991-0.187l0.651-6.969l1.991,0.186l1.257-13.441l7.818-8.434l0.966-10.33l0,0l1.489-15.931l-1.991-0.186
	l1.117-11.948l9.957,0.931l0.978-10.454c0,0-3.346-1.819-0.204-4.539l1.618,0.151l2.001-21.407l2.131-1.307l1.071-11.45l6.117-9.472
	c0,0,0.195-4.333,1.19-4.24l0.807-8.629c0,0,1.321-3.392,2.317-3.299l3.677-39.329"/>
<path fill="#AEC6CF" d="M1283.365,796.977l38.972-280.468l14.044-7.853l2.672-19.232c0,0-182.627-21.019-201.726,13.901
	c0,0-0.945,9.125,16.25,15.871l-35.407,254.829L1283.365,796.977z"/>
<ellipse fill="#AEC6CF" cx="640" cy="804.5" rx="662" ry="95.5"/>
<path fill="#AEC6CF" d="M1064.033,272.504c-1.054-0.099-1.528-0.341-2.078-0.623c-0.594-0.305-1.269-0.65-2.598-0.774
	c-1.329-0.124-2.055,0.091-2.696,0.281c-0.592,0.175-1.103,0.327-2.155,0.229c-1.055-0.099-1.527-0.342-2.077-0.623
	c-0.595-0.305-1.27-0.65-2.599-0.774c-0.394-0.037-0.743,0.252-0.78,0.647l-0.755,8.098c-0.037,0.396,0.253,0.744,0.646,0.781
	c1.054,0.098,1.528,0.341,2.078,0.623c0.595,0.305,1.27,0.65,2.599,0.774c1.327,0.124,2.055-0.092,2.695-0.281
	c0.593-0.175,1.104-0.326,2.156-0.228c1.054,0.098,1.527,0.341,2.077,0.623c0.595,0.304,1.27,0.65,2.598,0.773
	c0.394,0.037,0.743-0.253,0.78-0.647l0.755-8.098C1064.717,272.889,1064.427,272.541,1064.033,272.504z"/>
<g>
	<g>
		<g>
			<g>
				<path fill="#AEC6CF" d="M406.299,707.639c0.946,1.095,1.99,2.343,3.439,2.491c0.411-4.6,3.606-6.771,3.642-7.722
					c0.042-1.126-2.957-2.169-3.852-2.593C408.512,699.334,405.26,706.437,406.299,707.639z"/>
			</g>
			<g>
				<path fill="#AEC6CF" d="M414.216,661.839c1.374,4.928,4.237,15.923,3.856,17.052l-11.582,22.774
					c0.382,1.013,4.93,3.982,5.98,3.951c0,0,13.271-23.313,13.986-25.591c0.578-1.84,0.787-12.629-0.529-17.88
					c-1.39-5.548-4.151-8.662-10.133-8.895c-2.311-0.09-1.906,0.104-2.131,1.953C413.414,657.247,413.67,659.883,414.216,661.839z"
					/>
			</g>
			<g>
				<g>
					<path fill="#AEC6CF" d="M404.175,706.728c0-0.932,1.943-2.741,3.009-2.289c1.552,0.656,2.477,3.549,2.816,4.994
						c0.509,2.167,0.425,3.208,2.304,4.694c1.514,1.196,0.345,2.441-1.638,2.715c-3.563,0.493-4.674-0.897-5.474-4.254
						C404.749,710.724,404.19,708.642,404.175,706.728z"/>
				</g>
				<path fill="#AEC6CF" d="M404.55,706.563c2.538-0.71,3.783,6.842,4.484,7.704c0.76,0.935,2.738,1.406,3.7,1.646"/>
			</g>
		</g>
		<g>
			<g>
				<path fill="#AEC6CF" d="M430.157,713.943c0.86,0.889,3.859-0.021,4.551-1.038l-0.5-3.688c-0.879-0.725-3.012-1.119-4.02-0.79
					C430.135,708.188,429.676,713.446,430.157,713.943z"/>
			</g>
			<g>
				<path fill="#AEC6CF" d="M435.871,653.187c5.506,11.374-0.072,56.813-0.072,56.813c-1.055,1.84-5.347,3.091-6.525,0.783
					c-0.247-0.483-0.307-22.69,0.079-29.294c0.383-6.564-2.167-10.65-5.318-16.172c-1.585-2.777-3.175-5.973-3.692-9.174
					c-0.472-2.926,0.853-3.544,3.441-3.959C425.693,651.878,434.697,650.762,435.871,653.187z"/>
			</g>
			<g>
				<g>
					<path fill="#AEC6CF" d="M429.809,712.354c1.063,1.281,1.938,1.775,3.532,0.987c0.569-0.281,1.367-1.308,1.367-1.308
						c0.648,0.58,6.699-0.108,6.331,0.908c-0.863,2.382-6.64,4.859-8.742,4.859c-2.358,0-3.117-2.532-2.487-5.407"/>
				</g>
				<path fill="#AEC6CF" d="M429.888,715.683c1.803,2.658,9.272-0.348,10.525-3.137"/>
			</g>
		</g>
	</g>
	<g>
		<g>
			<path fill="#AEC6CF" d="M428.999,600.382l-5.028,10.849l6.648,3.904c0,0,1.322-4.222,4.519-4.775
				C438.336,609.805,428.999,600.382,428.999,600.382z"/>
		</g>
		<g>
			<g>
				<path fill="#AEC6CF" d="M433.198,616.318c0.959,1.073-0.859,5.966-0.999,6.997c-0.36,2.677-0.297,5.354-0.066,8.037
					c0.501,5.811,0.883,11.834,2.624,17.415c0.433,1.388,2.049,4.769,0.674,5.93c-1.28,1.081-7.022,0.332-8.608,0.336
					c-2.885,0.008-13.027,1.345-14.478-1.247c-0.871-1.556,0.031-6.359,0-8.113c-0.048-2.717-0.175-5.434-0.13-8.151
					c0.086-5.333-0.457-11.229,0.748-16.402c0.467-2.006,0.642-5.154,2.245-6.42c0.65-0.513,2.339-0.68,3.167-1.016
					c1.272-0.515,3.469-2.288,4.734-2.819C427.903,608.852,429.987,612.723,433.198,616.318z"/>
			</g>
			<path fill="#AEC6CF" d="M421.529,611.765c6.123-0.689,6.168,1.865,9.413,2.961"/>
		</g>
		<g>
			<g>
				<path fill="#AEC6CF" d="M415.61,620.726c0.993-2.815,1.336-5.591,1.776-6.669c0.233-0.569,1.12-0.973,1.822-0.747
					c-0.019,2.228-0.959,3.657-0.978,5.885c3.516,0.001,4.129-1.612,6.534-3.357c1.724-1.252,4.998-1.315,6.512-1.064
					c1.351,0.223,2.282,1.933,2.282,1.933s-1.369-1.573-6.634-0.079c-2.049,0.582-3.582,2.986-3.994,4.214
					C422.408,622.398,417.625,620.566,415.61,620.726z"/>
			</g>
			<g>
				<path fill="#AEC6CF" d="M408.002,619.003c3.034-0.611,6.167-0.714,9.237-0.322c1.485,0.189,2.956,0.493,4.394,0.914
					c1.652,0.482,2.688,0.65,2.771,2.513c0.14,3.142-0.735,6.239-0.932,9.361c-0.209,3.318,0.255,6.503,0.886,9.748
					c0.504,2.598,0.874,5.713-1.097,7.837c-1.967,2.119-5.386,1.6-7.929,1.131c-1.55-0.286-3.072-0.706-4.585-1.141
					c-1.274-0.365-2.75-0.666-3.761-1.583c-1.946-1.767-1.302-5.777-1.286-8.13c0.022-3.182,0.6-6.166,0.962-9.301
					c0.099-0.854,0.236-1.992,0.236-1.992s-2.112-0.386-2.724-0.514C405.451,624.684,406.727,621.844,408.002,619.003z"/>
			</g>
			<circle fill="#AEC6CF" cx="411.235" cy="625.903" r="0.732"/>
			<path fill="#AEC6CF" d="M421.161,623.584c-0.618,5.541-2.879,5.745-2.879,5.745c-3.141-0.396-8.244-0.894-11.384-1.291"/>
			<path fill="#AEC6CF" d="M406.66,636.671c0.971-2.233,5.251-1.341,7.115-1.321c3.704,0.038,5.341,0.295,5.536,4.611
				c0.086,1.918,0.585,5.701-1.092,7.093c-1.586,1.316-4.719,0.275-6.458-0.164c-0.893-0.225-3.653-0.748-4.349-1.364
				C406.535,644.749,405.806,638.636,406.66,636.671z"/>
			<path fill="#AEC6CF" d="M406.25,639.535c4.478,0.205,8.467,1.063,12.945,1.268"/>
			<path fill="#AEC6CF" d="M421.566,621.695c-1.137,4.806-1.403,9.275-1.04,13.973c0.352,4.556,0.744,9.111,1.394,13.634
				c0.034,0.236,0.1,0.514,0.322,0.6"/>
			<path fill="#AEC6CF" d="M416.274,618.533c4.585,0.515,6.61,1.863,6.963,1.589"/>
		</g>
		<g>
			<g>
				<g>
					<path fill="#AEC6CF" d="M427.72,658.324c-0.654,1.241,0.006,4.31-0.042,6.226c-0.043,1.662-1.276,0.8-1.561,1.39
						c0,0-0.74-0.352-0.604,0.017c0.932,2.526,3.404,2.643,4.126,2.154c1.908-1.289,2.149-3.731,2.149-3.731
						c0.069-1.113-0.055-5.442-0.955-6.268C430.16,657.495,427.72,658.324,427.72,658.324z"/>
				</g>
				<path fill="#AEC6CF" d="M426.116,665.939c-0.184,0.123,2.384,0.76,2.701-0.921"/>
				<path fill="#AEC6CF" d="M425.873,666.702c1.957,0.954,4.021,0,4.258-1.852"/>
				<path fill="#AEC6CF" d="M430.962,665.35c-0.3,1.841-2.455,3.175-4.519,2.074"/>
			</g>
			<g>
				<g>
					<path fill="#AEC6CF" d="M432.4,616.147c2.35,0.449,4.559,3.671,3.351,9.135c-1.045,4.725-2.28,9.42-2.98,14.214
						c-0.83,5.692-0.474,14.521-0.559,20.176c-0.036,2.36-5.182,1.548-5.285,0.917c-0.091-0.564-0.967-9.823-0.902-12.234
						c0.13-4.81-0.161-11.052,0.946-16.214c0.564-2.635,0.312-4.826,0.441-7.528c0.065-1.362-0.685-3.956-0.438-4.967
						C427.398,617.904,431.682,616.01,432.4,616.147z"/>
				</g>
				<path fill="#AEC6CF" d="M428.05,621.222c0.166,3.805-2.958,18.826-1.744,33.75"/>
				<path fill="#AEC6CF" d="M432.843,639.014c-0.766,5.546-1.021,10.683-0.623,16.268"/>
			</g>
		</g>
	</g>
	<g>
		<g>
			<g>
				<path fill="#AEC6CF" d="M438.549,602.515c0,3.579-0.256,8.867-2.217,9.209c-2.188,0.381-5.585-1.393-7.35-3.612
					c-1.079-1.357-1.135-2.852-1.135-4.21c0-3.579,0.642-7.868,4.221-7.868C436.545,596.033,438.549,598.935,438.549,602.515z"/>
			</g>
			<g>
				<path fill="#AEC6CF" d="M425.953,606.955c0,0,2.739-4.081,2.993-4.531c0.352,0.859,0.179,2.682,0.695,2.385
					c0.939-0.54,2.975-2.789,3.366-4.697c0.262-1.278,6.473,0.676,6.326,0.035c-0.148-0.641-0.783-2.335-1.998-3.591
					c-4.169-4.313-9.673-2.676-10.224-0.701c-0.719-0.911-3.899,1.762-2.332,7.854C425.168,605.222,425.953,606.955,425.953,606.955
					z"/>
			</g>
		</g>
		<g>
			<g>
				<polygon fill="#AEC6CF" points="438.549,604.516 439.492,607.461 438.028,607.461 				"/>
			</g>
			<g>
				<ellipse fill="#AEC6CF" cx="436.687" cy="603.708" rx="0.407" ry="0.808"/>
			</g>
			<path fill="#AEC6CF" d="M436.28,608.625c0,0,1.052,0.595,1.749,0.453"/>
			<path fill="#AEC6CF" d="M435.041,602.9c0,0,1.297-0.716,2.521-0.403"/>
		</g>
		<g>
			<g>
				<path fill="#AEC6CF" d="M429.521,603.405c-0.316,1.154-0.524,2.102-1.248,1.903c-0.723-0.197-1.688-1.467-1.372-2.62
					s1.158-1.928,1.881-1.729S429.837,602.253,429.521,603.405z"/>
			</g>
			<path fill="#AEC6CF" d="M429.218,601.496c-0.209-0.158-0.519-0.126-0.737,0.019c-0.218,0.145-0.36,0.381-0.465,0.621
				c-0.317,0.729-0.349,1.576-0.088,2.327"/>
			<path fill="#AEC6CF" d="M428.174,602.313c0.039,0.437,0.295,0.848,0.669,1.075"/>
		</g>
	</g>
</g>
<g>
	<g>
		<g>
			<path fill="#AEC6CF" d="M875.457,640.332l2.955,15.665l0.019,0.104c0.179,0.946-0.361,1.86-1.234,2.184l-13.123,7.606
				l-1.19-2.916l12.784-8.436l-1.215,2.287l-3.587-15.531L875.457,640.332z"/>
			<circle fill="#AEC6CF" cx="862.184" cy="665.784" r="2.867"/>
			<path fill="#AEC6CF" d="M878.888,646.527l-3.125-6.584c-0.906-1.82-2.126-2.3-3.621-1.796l0,0
				c-1.242,0.391-1.975,1.62-1.796,3.622l0.398,6.572L878.888,646.527z"/>
		</g>
		<path fill="#AEC6CF" d="M864.264,687.857l-5.321,27.118l2.689,0.796c0,0,6.236-14.661,8.285-26.006L864.264,687.857z"/>
		<path fill="#AEC6CF" d="M876.025,689.077l11.606,25.078l2.646-0.935c0,0-3.557-15.53-8.556-25.918L876.025,689.077z"/>
		<path fill="#AEC6CF" d="M878.51,636.193l3.102,1.619c2.785,1.956,4.054,5.944,3.262,9.253l-3.951,11.968l-11.124-1.354l1.832-8.71
			c0,0-2.469-1.24-1.663-3.929c0.807-2.689,2.973-8.075,6.237-9.274L878.51,636.193z"/>
		<g>
			<defs>
				<path id="SVGID_1_" d="M878.51,636.193l3.102,1.619c2.785,1.956,4.054,5.944,3.262,9.253l-3.951,11.968l-11.124-1.354
					l1.832-8.71c0,0-2.469-1.24-1.663-3.929c0.807-2.689,2.973-8.075,6.237-9.274L878.51,636.193z"/>
			</defs>
			<use xlink:href="#SVGID_1_"  overflow="visible" fill="#AEC6CF"/>
			<clipPath id="SVGID_2_">
				<use xlink:href="#SVGID_1_"  overflow="visible"/>
			</clipPath>
			<g clip-path="url(#SVGID_2_)">
				<line fill="#AEC6CF" x1="867.755" y1="655.726" x2="882.998" y2="657.562"/>
				<line fill="#AEC6CF" x1="867.871" y1="654.21" x2="883.114" y2="656.047"/>
				<line fill="#AEC6CF" x1="867.987" y1="652.695" x2="883.23" y2="654.53"/>
				<line fill="#AEC6CF" x1="868.104" y1="651.179" x2="883.347" y2="653.015"/>
				<line fill="#AEC6CF" x1="868.22" y1="649.663" x2="883.463" y2="651.499"/>
				<line fill="#AEC6CF" x1="868.336" y1="648.148" x2="883.579" y2="649.984"/>
				<line fill="#AEC6CF" x1="868.452" y1="646.633" x2="883.695" y2="648.469"/>
				<line fill="#AEC6CF" x1="868.568" y1="645.118" x2="883.811" y2="646.953"/>
				<line fill="#AEC6CF" x1="868.684" y1="643.602" x2="883.928" y2="645.438"/>
				<line fill="#AEC6CF" x1="868.801" y1="642.086" x2="884.043" y2="643.922"/>
				<line fill="#AEC6CF" x1="868.916" y1="640.57" x2="884.159" y2="642.407"/>
				<line fill="#AEC6CF" x1="869.032" y1="639.056" x2="884.275" y2="640.891"/>
				<line fill="#AEC6CF" x1="869.148" y1="637.539" x2="884.392" y2="639.376"/>
				<line fill="#AEC6CF" x1="869.265" y1="636.024" x2="884.508" y2="637.859"/>
			</g>
		</g>
		<path fill="#AEC6CF" d="M863.471,713.771c-0.039-0.242-0.299-0.383-0.521-0.275c-0.434,0.212-1.175,0.425-2.143,0.136
			c-1.005-0.301-1.275-0.907-1.34-1.314c-0.033-0.214-0.23-0.361-0.442-0.316l-6.801,1.444c-0.413,0.088-0.773,0.337-1.003,0.69l0,0
			c-0.215,0.333-0.023,0.778,0.367,0.849l10.785,1.954c0.426,0.076,0.827-0.218,0.882-0.645l0.27-2.101
			c0.003-0.035,0.002-0.07-0.003-0.105L863.471,713.771z"/>
		<path fill="#AEC6CF" d="M891.108,712.326c-0.133-0.207-0.429-0.23-0.588-0.044c-0.313,0.368-0.906,0.862-1.909,0.986
			c-1.04,0.128-1.532-0.317-1.754-0.665c-0.117-0.183-0.357-0.238-0.534-0.11l-5.645,4.055c-0.344,0.247-0.573,0.618-0.641,1.036
			l0,0c-0.064,0.391,0.29,0.722,0.676,0.629l10.663-2.546c0.419-0.101,0.669-0.531,0.547-0.944l-0.6-2.031
			c-0.009-0.034-0.024-0.066-0.042-0.097L891.108,712.326z"/>
		<g>
			<g>
				<path fill="#AEC6CF" d="M871.734,627.525c0.666,2.92,3.361,5.896,5.723,5.357c2.36-0.539,3.732-3.344,3.065-6.264
					c-0.669-2.92-3.123-4.849-5.483-4.309C872.678,622.851,871.065,624.605,871.734,627.525z"/>
				<path fill="#AEC6CF" d="M877.163,637.683L877.163,637.683c1.275,0.098,2.678,0.408,2.775-0.865l0.649-8.472l-4.595-0.353
					l-0.681,8.878C875.232,637.922,876.113,637.603,877.163,637.683z"/>
				<circle fill="#AEC6CF" cx="877.563" cy="628.114" r="5.007"/>
				<path fill="#AEC6CF" d="M875.32,634.585L875.32,634.585c1.309,0.1,2.451-0.88,2.552-2.19l0.262-3.417l-5.563-1.246l-0.257,3.348
					C872.177,632.876,873.521,634.446,875.32,634.585z"/>
				<path fill="#AEC6CF" d="M872.631,628.857l-1.214,1.522c-0.175,0.251,0.002,0.588,0.319,0.612l1.246,0.336L872.631,628.857z"/>
				<g>
					<defs>
						<circle id="SVGID_3_" cx="877.563" cy="628.114" r="5.007"/>
					</defs>
					<use xlink:href="#SVGID_3_"  overflow="visible" fill="#AEC6CF"/>
					<clipPath id="SVGID_4_">
						<use xlink:href="#SVGID_3_"  overflow="visible"/>
					</clipPath>
				</g>
				<circle fill="#AEC6CF" cx="878.002" cy="630.322" r="1.377"/>
				<path fill="#AEC6CF" d="M874.14,625.24c-0.229,2.985,2.307,7.654,5.292,7.883c2.986,0.229,4.722-2.574,4.951-5.562
					c0.229-2.985-2.008-5.593-4.994-5.822C876.403,621.511,874.368,622.253,874.14,625.24z"/>
			</g>
			<circle fill="#AEC6CF" cx="886.701" cy="624.586" r="3.599"/>
		</g>
		<path fill="#AEC6CF" d="M879.795,637.308c0,0-3.551,7.101-6.646,5.823c-1.858-0.768,2.501-6.678,2.501-6.678L879.795,637.308z"/>
		<path fill="#AEC6CF" d="M869.798,657.68l-6.931,31.386c0,0,5.45,4.951,12.65,4.046c7.202-0.905,6.89-6.111,13.722-4.777
			c0,0-4.138-20.361-8.313-29.346L869.798,657.68z"/>
		<g>
			<path fill="#AEC6CF" d="M886.073,644.198l3.942,11.662l0.059,0.176c0.203,0.599,0.118,1.233-0.171,1.742l-7.872,13.662
				l-2.929-1.517l6.606-14.316l-0.113,1.919l-4.737-11.362L886.073,644.198z"/>
			<circle fill="#AEC6CF" cx="880.733" cy="672.319" r="3.002"/>
			<path fill="#AEC6CF" d="M889.012,647.048l-3.819-6.603c-1.1-1.824-2.413-2.22-3.93-1.566l0,0
				c-1.264,0.513-1.924,1.855-1.566,3.931l0.97,6.823L889.012,647.048z"/>
		</g>
		<path fill="#AEC6CF" d="M883.201,623.753c0,0,1.615,1.692,1.182,3.809"/>
	</g>
	<path fill="#AEC6CF" d="M875.487,634.591c0,0,1.315-0.181,1.875-0.897c0,0,0.099,1.476-1.96,2.012L875.487,634.591z"/>
</g>
</svg>
